<svg width="20" height="21" viewBox="0 0 20 21" fill="#fff" xmlns="http://www.w3.org/2000/svg">
    <g clip-path="url(#clip0_799_2975)">
        <path d="M10 0.8125C4.64844 0.8125 0.3125 5.14844 0.3125 10.5C0.3125 15.8516 4.64844 20.1875 10 20.1875C15.3516 20.1875 19.6875 15.8516 19.6875 10.5C19.6875 5.14844 15.3516 0.8125 10 0.8125ZM10 18.3125C5.68359 18.3125 2.1875 14.8164 2.1875 10.5C2.1875 6.18359 5.68359 2.6875 10 2.6875C14.3164 2.6875 17.8125 6.18359 17.8125 10.5C17.8125 14.8164 14.3164 18.3125 10 18.3125ZM12.4141 14.2344L9.09766 11.8242C8.97656 11.7344 8.90625 11.5938 8.90625 11.4453V5.03125C8.90625 4.77344 9.11719 4.5625 9.375 4.5625H10.625C10.8828 4.5625 11.0938 4.77344 11.0938 5.03125V10.5664L13.7031 12.4648C13.9141 12.6172 13.957 12.9102 13.8047 13.1211L13.0703 14.1328C12.918 14.3398 12.625 14.3867 12.4141 14.2344Z"
              fill="#fff" fill-opacity="0.9"/>
    </g>
    <defs>
        <clipPath id="clip0_799_2975">
            <rect width="20" height="20" fill="#fff" transform="translate(0 0.5)"/>
        </clipPath>
    </defs>
</svg>
