<svg width="24" height="24" viewBox="0 0 24 24" fill="#fff" xmlns="http://www.w3.org/2000/svg">
    <path d="M14.7309 11.5001L19.7803 6.45074C20.0723 6.15871 20.0723 5.6848 19.7803 5.3923L18.607 4.21902C18.315 3.92699 17.8411 3.92699 17.5486 4.21902L12.4996 9.26887L7.45027 4.21949C7.15824 3.92746 6.68434 3.92746 6.39184 4.21949L5.21902 5.3923C4.92699 5.68434 4.92699 6.15824 5.21902 6.45074L10.2684 11.5001L5.21902 16.5495C4.92699 16.8415 4.92699 17.3154 5.21902 17.6079L6.3923 18.7812C6.68434 19.0732 7.15824 19.0732 7.45074 18.7812L12.4996 13.7314L17.549 18.7807C17.8411 19.0728 18.315 19.0728 18.6075 18.7807L19.7807 17.6075C20.0728 17.3154 20.0728 16.8415 19.7807 16.549L14.7309 11.5001Z"
          fill="#fff"/>
</svg>
