<svg width="24" height="24" viewBox="0 0 24 24" fill="#fff" xmlns="http://www.w3.org/2000/svg">
    <g clip-path="url(#clip0_579_4749)">
        <path d="M23.855 11.3917C21.5954 6.98292 17.1221 4 12 4C6.87791 4 2.40332 6.98501 0.144977 11.3921C0.0496614 11.5806 0 11.789 0 12.0002C0 12.2115 0.0496614 12.4198 0.144977 12.6083C2.40457 17.0171 6.87791 20 12 20C17.1221 20 21.5967 17.015 23.855 12.6079C23.9503 12.4194 24 12.2111 24 11.9998C24 11.7885 23.9503 11.5802 23.855 11.3917ZM12 18C10.8133 18 9.65327 17.6481 8.66657 16.9888C7.67988 16.3296 6.91084 15.3925 6.45671 14.2961C6.00259 13.1998 5.88377 11.9934 6.11528 10.8295C6.34679 9.66558 6.91823 8.59648 7.75735 7.75737C8.59647 6.91825 9.66557 6.3468 10.8295 6.11529C11.9933 5.88378 13.1997 6.0026 14.2961 6.45673C15.3925 6.91085 16.3295 7.67989 16.9888 8.66659C17.6481 9.65328 18 10.8133 18 12C18.0004 12.7881 17.8455 13.5684 17.5441 14.2966C17.2427 15.0247 16.8007 15.6863 16.2435 16.2435C15.6863 16.8007 15.0247 17.2427 14.2966 17.5441C13.5684 17.8455 12.788 18.0004 12 18ZM12 8.00001C11.643 8.005 11.2882 8.05812 10.9454 8.15792C11.228 8.54196 11.3636 9.01455 11.3277 9.48999C11.2917 9.96543 11.0865 10.4122 10.7494 10.7494C10.4122 11.0865 9.96541 11.2917 9.48997 11.3277C9.01453 11.3636 8.54194 11.228 8.15791 10.9454C7.93923 11.7511 7.9787 12.605 8.27078 13.3871C8.56285 14.1692 9.09282 14.8399 9.78608 15.305C10.4793 15.7701 11.301 16.006 12.1354 15.9797C12.9698 15.9533 13.7749 15.666 14.4375 15.1581C15.1 14.6502 15.5866 13.9473 15.8287 13.1483C16.0708 12.3494 16.0563 11.4947 15.7872 10.7044C15.5181 9.91416 15.008 9.22819 14.3286 8.74305C13.6492 8.25792 12.8348 7.99804 12 8.00001Z"
              fill="#fff"/>
    </g>
    <defs>
        <clipPath id="clip0_579_4749">
            <rect width="24" height="24" fill="#fff"/>
        </clipPath>
    </defs>
</svg>
