<svg width="25" height="24" viewBox="0 0 25 24" fill="#F51441" xmlns="http://www.w3.org/2000/svg">
    <g clip-path="url(#clip0_1562_11459)">
        <path d="M23.875 12C23.875 5.57812 18.6719 0.375 12.25 0.375C5.82812 0.375 0.625 5.57812 0.625 12C0.625 18.4219 5.82812 23.625 12.25 23.625C18.6719 23.625 23.875 18.4219 23.875 12ZM2.875 12C2.875 6.82031 7.07031 2.625 12.25 2.625C17.4297 2.625 21.625 6.82031 21.625 12C21.625 17.1797 17.4297 21.375 12.25 21.375C7.07031 21.375 2.875 17.1797 2.875 12ZM16.75 8.25V15.75C16.75 16.1625 16.4125 16.5 16 16.5H8.5C8.0875 16.5 7.75 16.1625 7.75 15.75V8.25C7.75 7.8375 8.0875 7.5 8.5 7.5H16C16.4125 7.5 16.75 7.8375 16.75 8.25Z"
              fill="#F51441"/>
    </g>
    <defs>
        <clipPath id="clip0_1562_11459">
            <rect width="24" height="24" fill="#F51441" transform="translate(0.25)"/>
        </clipPath>
    </defs>
</svg>
